<mxfile host="app.diagrams.net" agent="Mozilla/5.0 (Macintosh; Intel Mac OS X 10_15_7) AppleWebKit/537.36 (KHTML, like Gecko) Chrome/136.0.0.0 Safari/537.36" version="27.0.4">
  <diagram name="第 1 页" id="9lRfG0cPdA2OdcxsO-3i">
    <mxGraphModel dx="933" dy="655" grid="1" gridSize="10" guides="1" tooltips="1" connect="1" arrows="1" fold="1" page="1" pageScale="1" pageWidth="827" pageHeight="1169" math="0" shadow="0">
      <root>
        <mxCell id="0" />
        <mxCell id="1" parent="0" />
        <mxCell id="8wr3289nZNQQIbeSuSAQ-12" style="edgeStyle=orthogonalEdgeStyle;rounded=0;sketch=1;hachureGap=4;jiggle=2;curveFitting=1;orthogonalLoop=1;jettySize=auto;html=1;exitX=1;exitY=0.5;exitDx=0;exitDy=0;entryX=0;entryY=0.5;entryDx=0;entryDy=0;fontFamily=Architects Daughter;fontSource=https%3A%2F%2Ffonts.googleapis.com%2Fcss%3Ffamily%3DArchitects%2BDaughter;strokeWidth=2;" edge="1" parent="1" source="8wr3289nZNQQIbeSuSAQ-1" target="8wr3289nZNQQIbeSuSAQ-11">
          <mxGeometry relative="1" as="geometry" />
        </mxCell>
        <mxCell id="8wr3289nZNQQIbeSuSAQ-13" style="edgeStyle=orthogonalEdgeStyle;rounded=0;sketch=1;hachureGap=4;jiggle=2;curveFitting=1;orthogonalLoop=1;jettySize=auto;html=1;exitX=1;exitY=0.5;exitDx=0;exitDy=0;entryX=0;entryY=0.5;entryDx=0;entryDy=0;fontFamily=Architects Daughter;fontSource=https%3A%2F%2Ffonts.googleapis.com%2Fcss%3Ffamily%3DArchitects%2BDaughter;strokeWidth=2;" edge="1" parent="1" source="8wr3289nZNQQIbeSuSAQ-1" target="8wr3289nZNQQIbeSuSAQ-10">
          <mxGeometry relative="1" as="geometry" />
        </mxCell>
        <mxCell id="8wr3289nZNQQIbeSuSAQ-14" style="edgeStyle=orthogonalEdgeStyle;rounded=0;sketch=1;hachureGap=4;jiggle=2;curveFitting=1;orthogonalLoop=1;jettySize=auto;html=1;exitX=1;exitY=0.5;exitDx=0;exitDy=0;entryX=0;entryY=0.5;entryDx=0;entryDy=0;fontFamily=Architects Daughter;fontSource=https%3A%2F%2Ffonts.googleapis.com%2Fcss%3Ffamily%3DArchitects%2BDaughter;strokeWidth=2;" edge="1" parent="1" source="8wr3289nZNQQIbeSuSAQ-1" target="8wr3289nZNQQIbeSuSAQ-2">
          <mxGeometry relative="1" as="geometry" />
        </mxCell>
        <mxCell id="8wr3289nZNQQIbeSuSAQ-1" value="&lt;b&gt;&lt;font style=&quot;font-size: 14px;&quot;&gt;MCP网关&lt;/font&gt;&lt;/b&gt;&lt;div&gt;&lt;b&gt;&lt;font style=&quot;font-size: 14px;&quot;&gt;(Higress)&lt;/font&gt;&lt;/b&gt;&lt;/div&gt;" style="rounded=0;whiteSpace=wrap;html=1;sketch=1;hachureGap=4;jiggle=2;curveFitting=1;fontFamily=Architects Daughter;fontSource=https%3A%2F%2Ffonts.googleapis.com%2Fcss%3Ffamily%3DArchitects%2BDaughter;fillColor=none;strokeWidth=2;" vertex="1" parent="1">
          <mxGeometry x="200" y="400" width="80" height="120" as="geometry" />
        </mxCell>
        <mxCell id="8wr3289nZNQQIbeSuSAQ-7" style="edgeStyle=orthogonalEdgeStyle;rounded=0;sketch=1;hachureGap=4;jiggle=2;curveFitting=1;orthogonalLoop=1;jettySize=auto;html=1;exitX=1;exitY=0.5;exitDx=0;exitDy=0;entryX=0;entryY=0.5;entryDx=0;entryDy=0;fontFamily=Architects Daughter;fontSource=https%3A%2F%2Ffonts.googleapis.com%2Fcss%3Ffamily%3DArchitects%2BDaughter;strokeWidth=2;" edge="1" parent="1" source="8wr3289nZNQQIbeSuSAQ-2" target="8wr3289nZNQQIbeSuSAQ-4">
          <mxGeometry relative="1" as="geometry" />
        </mxCell>
        <mxCell id="8wr3289nZNQQIbeSuSAQ-2" value="&lt;b&gt;&lt;font style=&quot;font-size: 14px;&quot;&gt;API网关&lt;/font&gt;&lt;/b&gt;" style="rounded=0;whiteSpace=wrap;html=1;sketch=1;hachureGap=4;jiggle=2;curveFitting=1;fontFamily=Architects Daughter;fontSource=https%3A%2F%2Ffonts.googleapis.com%2Fcss%3Ffamily%3DArchitects%2BDaughter;fillColor=none;strokeWidth=2;" vertex="1" parent="1">
          <mxGeometry x="400" y="520" width="80" height="120" as="geometry" />
        </mxCell>
        <mxCell id="8wr3289nZNQQIbeSuSAQ-8" style="edgeStyle=orthogonalEdgeStyle;rounded=0;sketch=1;hachureGap=4;jiggle=2;curveFitting=1;orthogonalLoop=1;jettySize=auto;html=1;exitX=1;exitY=0.5;exitDx=0;exitDy=0;entryX=0;entryY=0.5;entryDx=0;entryDy=0;fontFamily=Architects Daughter;fontSource=https%3A%2F%2Ffonts.googleapis.com%2Fcss%3Ffamily%3DArchitects%2BDaughter;strokeWidth=2;" edge="1" parent="1" source="8wr3289nZNQQIbeSuSAQ-4" target="8wr3289nZNQQIbeSuSAQ-5">
          <mxGeometry relative="1" as="geometry" />
        </mxCell>
        <mxCell id="8wr3289nZNQQIbeSuSAQ-4" value="&lt;b&gt;&lt;font style=&quot;font-size: 14px;&quot;&gt;A&lt;/font&gt;&lt;/b&gt;" style="rounded=0;whiteSpace=wrap;html=1;sketch=1;hachureGap=4;jiggle=2;curveFitting=1;fontFamily=Architects Daughter;fontSource=https%3A%2F%2Ffonts.googleapis.com%2Fcss%3Ffamily%3DArchitects%2BDaughter;fillColor=none;strokeWidth=2;" vertex="1" parent="1">
          <mxGeometry x="520" y="550" width="80" height="60" as="geometry" />
        </mxCell>
        <mxCell id="8wr3289nZNQQIbeSuSAQ-9" style="edgeStyle=orthogonalEdgeStyle;rounded=0;sketch=1;hachureGap=4;jiggle=2;curveFitting=1;orthogonalLoop=1;jettySize=auto;html=1;exitX=1;exitY=0.5;exitDx=0;exitDy=0;entryX=0;entryY=0.5;entryDx=0;entryDy=0;fontFamily=Architects Daughter;fontSource=https%3A%2F%2Ffonts.googleapis.com%2Fcss%3Ffamily%3DArchitects%2BDaughter;strokeWidth=2;" edge="1" parent="1" source="8wr3289nZNQQIbeSuSAQ-5" target="8wr3289nZNQQIbeSuSAQ-6">
          <mxGeometry relative="1" as="geometry" />
        </mxCell>
        <mxCell id="8wr3289nZNQQIbeSuSAQ-5" value="&lt;b&gt;&lt;font style=&quot;font-size: 14px;&quot;&gt;B&lt;/font&gt;&lt;/b&gt;" style="rounded=0;whiteSpace=wrap;html=1;sketch=1;hachureGap=4;jiggle=2;curveFitting=1;fontFamily=Architects Daughter;fontSource=https%3A%2F%2Ffonts.googleapis.com%2Fcss%3Ffamily%3DArchitects%2BDaughter;fillColor=none;strokeWidth=2;" vertex="1" parent="1">
          <mxGeometry x="640" y="550" width="80" height="60" as="geometry" />
        </mxCell>
        <mxCell id="8wr3289nZNQQIbeSuSAQ-6" value="&lt;b&gt;&lt;font style=&quot;font-size: 14px;&quot;&gt;c&lt;/font&gt;&lt;/b&gt;" style="rounded=0;whiteSpace=wrap;html=1;sketch=1;hachureGap=4;jiggle=2;curveFitting=1;fontFamily=Architects Daughter;fontSource=https%3A%2F%2Ffonts.googleapis.com%2Fcss%3Ffamily%3DArchitects%2BDaughter;fillColor=none;strokeWidth=2;" vertex="1" parent="1">
          <mxGeometry x="760" y="550" width="80" height="60" as="geometry" />
        </mxCell>
        <mxCell id="8wr3289nZNQQIbeSuSAQ-10" value="&lt;span style=&quot;font-size: 14px;&quot;&gt;&lt;b&gt;大神&lt;/b&gt;&lt;/span&gt;" style="rounded=0;whiteSpace=wrap;html=1;sketch=1;hachureGap=4;jiggle=2;curveFitting=1;fontFamily=Architects Daughter;fontSource=https%3A%2F%2Ffonts.googleapis.com%2Fcss%3Ffamily%3DArchitects%2BDaughter;fillColor=none;strokeWidth=2;" vertex="1" parent="1">
          <mxGeometry x="400" y="430" width="80" height="60" as="geometry" />
        </mxCell>
        <mxCell id="8wr3289nZNQQIbeSuSAQ-11" value="&lt;b&gt;&lt;font style=&quot;font-size: 14px;&quot;&gt;ZAPI&lt;/font&gt;&lt;/b&gt;" style="rounded=0;whiteSpace=wrap;html=1;sketch=1;hachureGap=4;jiggle=2;curveFitting=1;fontFamily=Architects Daughter;fontSource=https%3A%2F%2Ffonts.googleapis.com%2Fcss%3Ffamily%3DArchitects%2BDaughter;fillColor=none;strokeWidth=2;" vertex="1" parent="1">
          <mxGeometry x="400" y="340" width="80" height="60" as="geometry" />
        </mxCell>
        <mxCell id="8wr3289nZNQQIbeSuSAQ-16" style="edgeStyle=orthogonalEdgeStyle;rounded=0;sketch=1;hachureGap=4;jiggle=2;curveFitting=1;orthogonalLoop=1;jettySize=auto;html=1;exitX=1;exitY=0.5;exitDx=0;exitDy=0;entryX=0;entryY=0.5;entryDx=0;entryDy=0;fontFamily=Architects Daughter;fontSource=https%3A%2F%2Ffonts.googleapis.com%2Fcss%3Ffamily%3DArchitects%2BDaughter;strokeWidth=2;" edge="1" parent="1" source="8wr3289nZNQQIbeSuSAQ-15" target="8wr3289nZNQQIbeSuSAQ-1">
          <mxGeometry relative="1" as="geometry" />
        </mxCell>
        <mxCell id="8wr3289nZNQQIbeSuSAQ-17" value="&lt;b&gt;Http SSE&lt;/b&gt;" style="edgeLabel;html=1;align=center;verticalAlign=middle;resizable=0;points=[];sketch=1;hachureGap=4;jiggle=2;curveFitting=1;fontFamily=Architects Daughter;fontSource=https%3A%2F%2Ffonts.googleapis.com%2Fcss%3Ffamily%3DArchitects%2BDaughter;" vertex="1" connectable="0" parent="8wr3289nZNQQIbeSuSAQ-16">
          <mxGeometry x="-0.05" y="2" relative="1" as="geometry">
            <mxPoint y="12" as="offset" />
          </mxGeometry>
        </mxCell>
        <mxCell id="8wr3289nZNQQIbeSuSAQ-15" value="&lt;b&gt;&lt;font style=&quot;font-size: 14px;&quot;&gt;MCP client&lt;/font&gt;&lt;/b&gt;" style="rounded=0;whiteSpace=wrap;html=1;sketch=1;hachureGap=4;jiggle=2;curveFitting=1;fontFamily=Architects Daughter;fontSource=https%3A%2F%2Ffonts.googleapis.com%2Fcss%3Ffamily%3DArchitects%2BDaughter;fillColor=none;strokeWidth=2;" vertex="1" parent="1">
          <mxGeometry x="40" y="400" width="80" height="120" as="geometry" />
        </mxCell>
        <mxCell id="8wr3289nZNQQIbeSuSAQ-18" value="&lt;b&gt;Http&lt;/b&gt;" style="edgeLabel;html=1;align=center;verticalAlign=middle;resizable=0;points=[];sketch=1;hachureGap=4;jiggle=2;curveFitting=1;fontFamily=Architects Daughter;fontSource=https%3A%2F%2Ffonts.googleapis.com%2Fcss%3Ffamily%3DArchitects%2BDaughter;" vertex="1" connectable="0" parent="1">
          <mxGeometry x="370" y="360" as="geometry">
            <mxPoint x="-4" y="-4" as="offset" />
          </mxGeometry>
        </mxCell>
        <mxCell id="8wr3289nZNQQIbeSuSAQ-19" value="&lt;b&gt;Http&lt;/b&gt;" style="edgeLabel;html=1;align=center;verticalAlign=middle;resizable=0;points=[];sketch=1;hachureGap=4;jiggle=2;curveFitting=1;fontFamily=Architects Daughter;fontSource=https%3A%2F%2Ffonts.googleapis.com%2Fcss%3Ffamily%3DArchitects%2BDaughter;" vertex="1" connectable="0" parent="1">
          <mxGeometry x="370" y="450" as="geometry">
            <mxPoint x="-4" y="-4" as="offset" />
          </mxGeometry>
        </mxCell>
        <mxCell id="8wr3289nZNQQIbeSuSAQ-20" value="&lt;b&gt;Http&lt;/b&gt;" style="edgeLabel;html=1;align=center;verticalAlign=middle;resizable=0;points=[];sketch=1;hachureGap=4;jiggle=2;curveFitting=1;fontFamily=Architects Daughter;fontSource=https%3A%2F%2Ffonts.googleapis.com%2Fcss%3Ffamily%3DArchitects%2BDaughter;" vertex="1" connectable="0" parent="1">
          <mxGeometry x="370" y="570" as="geometry">
            <mxPoint x="-4" y="-4" as="offset" />
          </mxGeometry>
        </mxCell>
        <mxCell id="8wr3289nZNQQIbeSuSAQ-21" value="&lt;b&gt;SCF&lt;/b&gt;" style="edgeLabel;html=1;align=center;verticalAlign=middle;resizable=0;points=[];sketch=1;hachureGap=4;jiggle=2;curveFitting=1;fontFamily=Architects Daughter;fontSource=https%3A%2F%2Ffonts.googleapis.com%2Fcss%3Ffamily%3DArchitects%2BDaughter;" vertex="1" connectable="0" parent="1">
          <mxGeometry x="500" y="570" as="geometry">
            <mxPoint x="-4" y="-4" as="offset" />
          </mxGeometry>
        </mxCell>
        <mxCell id="8wr3289nZNQQIbeSuSAQ-22" value="&lt;b&gt;SCF&lt;/b&gt;" style="edgeLabel;html=1;align=center;verticalAlign=middle;resizable=0;points=[];sketch=1;hachureGap=4;jiggle=2;curveFitting=1;fontFamily=Architects Daughter;fontSource=https%3A%2F%2Ffonts.googleapis.com%2Fcss%3Ffamily%3DArchitects%2BDaughter;" vertex="1" connectable="0" parent="1">
          <mxGeometry x="620" y="570" as="geometry">
            <mxPoint x="-4" y="-4" as="offset" />
          </mxGeometry>
        </mxCell>
        <mxCell id="8wr3289nZNQQIbeSuSAQ-23" value="&lt;b&gt;SCF&lt;/b&gt;" style="edgeLabel;html=1;align=center;verticalAlign=middle;resizable=0;points=[];sketch=1;hachureGap=4;jiggle=2;curveFitting=1;fontFamily=Architects Daughter;fontSource=https%3A%2F%2Ffonts.googleapis.com%2Fcss%3Ffamily%3DArchitects%2BDaughter;" vertex="1" connectable="0" parent="1">
          <mxGeometry x="740" y="570" as="geometry">
            <mxPoint x="-4" y="-4" as="offset" />
          </mxGeometry>
        </mxCell>
      </root>
    </mxGraphModel>
  </diagram>
</mxfile>
